<?xml version="1.0" standalone="no"?>
<!DOCTYPE svg PUBLIC "-//W3C//DTD SVG 20010904//EN"
 "http://www.w3.org/TR/2001/REC-SVG-20010904/DTD/svg10.dtd">
<svg version="1.0" xmlns="http://www.w3.org/2000/svg"
 width="512.000000pt" height="512.000000pt" viewBox="0 0 512.000000 512.000000"
 preserveAspectRatio="xMidYMid meet">
<metadata>
Created by potrace 1.11, written by Peter Selinger 2001-2013
</metadata>
<g transform="translate(0.000000,512.000000) scale(0.100000,-0.100000)"
fill="#000000" stroke="none">
<path d="M1714 4960 c-72 -15 -156 -72 -205 -139 -49 -68 -62 -117 -64 -246
-2 -66 -4 -122 -4 -125 -1 -3 -108 -5 -239 -5 -168 0 -254 -4 -297 -14 -147
-35 -272 -117 -375 -247 -25 -32 -71 -127 -91 -189 l-23 -70 -2 -1605 c-1
-1540 -1 -1608 17 -1684 55 -230 243 -415 473 -467 77 -18 161 -19 1686 -16
1529 2 1608 3 1660 21 173 57 314 176 387 326 75 153 71 44 69 1826 l-1 1599
-28 82 c-57 164 -174 300 -322 372 -115 56 -166 64 -433 66 -128 1 -235 5
-239 9 -4 4 -8 57 -8 119 -1 62 -8 130 -15 152 -33 100 -124 192 -224 227 -47
16 -111 17 -866 16 -448 0 -833 -4 -856 -8z"/>
</g>
</svg>
